# xmcd
#
# Track frame offsets: 
#        150
#        7986
#        25519
#        46771
#        67217
#        85449
#        93814
#        105457
#        122439
#        133238
#        144059
#        164053
#        179098
#        189784
#        199912
#        218775
#
# Disc length: 3103 seconds
#
# Revision: 0
# Processed by: cddbd v1.5.1PL2 Copyright (c) Steve Scherf et al.
# Submitted via: ExactAudioCopy v0.95b4
#
DISCID=d60c1d10
DTITLE=Bullfrog Brown - Mudhole Stories
DYEAR=2004
DGENRE=Blues
TTITLE0=Blues Is King
TTITLE1=Blues For Leroy
TTITLE2=They Call Me Mudhole Johnson
TTITLE3=Bugs and Roaches
TTITLE4=He Who Lights Up The Stars
TTITLE5=Dentist Blues
TTITLE6=Somebody Turn On The Heat
TTITLE7=Blues For Breakfast
TTITLE8=Wicked Grin
TTITLE9=Walk Inside My Home
TTITLE10=Mardi Gras
TTITLE11=Two Left Feet
TTITLE12=Blues Keep My Chair
TTITLE13=Comin' Home
TTITLE14=Blind Mudhole Johnson
TTITLE15=Modern Times
EXTD=
EXTT0=
EXTT1=
EXTT2=
EXTT3=
EXTT4=
EXTT5=
EXTT6=
EXTT7=
EXTT8=
EXTT9=
EXTT10=
EXTT11=
EXTT12=
EXTT13=
EXTT14=
EXTT15=
PLAYORDER=
